<?xml version="1.0" encoding="UTF-8"?>
<!DOCTYPE svg PUBLIC "-//W3C//DTD SVG 1.1//EN" "http://www.w3.org/Graphics/SVG/1.1/DTD/svg11.dtd">
<svg xmlns="http://www.w3.org/2000/svg" xmlns:xlink="http://www.w3.org/1999/xlink" version="1.1" width="669px" height="512px" viewBox="-0.5 -0.5 669 512" style="background-color: rgb(255, 255, 255);"><defs/><g><rect x="342.5" y="370" width="325" height="60" rx="9" ry="9" fill="none" stroke="none" pointer-events="all"/><g transform="translate(-0.5 -0.5)" opacity="0.2"><switch><foreignObject style="overflow: visible; text-align: left;" pointer-events="none" width="100%" height="100%" requiredFeatures="http://www.w3.org/TR/SVG11/feature#Extensibility"><div xmlns="http://www.w3.org/1999/xhtml" style="display: flex; align-items: unsafe center; justify-content: unsafe center; width: 323px; height: 1px; padding-top: 400px; margin-left: 344px;"><div style="box-sizing: border-box; font-size: 0; text-align: center; "><div style="display: inline-block; font-size: 12px; font-family: Helvetica; color: #000000; line-height: 1.2; pointer-events: all; white-space: normal; word-wrap: normal; "><b><font style="background-color: rgb(255 , 255 , 255) ; font-size: 50px" color="#0066cc">支撑子图</font></b></div></div></div></foreignObject><text x="505" y="404" fill="#000000" font-family="Helvetica" font-size="12px" text-anchor="middle">支撑子图</text></switch></g><path d="M 411.22 213.31 L 419.36 207.5 L 457.73 261.23 L 466.28 255.12 L 464.71 279.59 L 441.05 273.14 L 449.6 267.04 Z" fill="#dae8fc" stroke="none" pointer-events="all"/><path d="M 280.88 207.13 L 288.47 213.63 L 241.49 268.45 L 249.46 275.28 L 225.33 279.62 L 225.92 255.11 L 233.89 261.94 Z" fill="#dae8fc" stroke="none" pointer-events="all"/><path d="M 265 70 L 322.65 33.99" fill="none" stroke="#000000" stroke-miterlimit="10" pointer-events="stroke"/><path d="M 327.1 31.21 L 323.02 37.88 L 322.65 33.99 L 319.31 31.95 Z" fill="#000000" stroke="#000000" stroke-miterlimit="10" pointer-events="all"/><path d="M 282.43 79.81 L 402.02 147.07" fill="none" stroke="#000000" stroke-miterlimit="10" pointer-events="stroke"/><path d="M 406.6 149.64 L 398.78 149.26 L 402.02 147.07 L 402.21 143.16 Z" fill="#000000" stroke="#000000" stroke-miterlimit="10" pointer-events="all"/><ellipse cx="265" cy="70" rx="20" ry="20" fill="#ffffff" stroke="#000000" pointer-events="all"/><path d="M 415.09 87.37 L 358.08 187.11" fill="none" stroke="#000000" stroke-miterlimit="10" pointer-events="stroke"/><path d="M 355.48 191.66 L 355.91 183.85 L 358.08 187.11 L 361.99 187.32 Z" fill="#000000" stroke="#000000" stroke-miterlimit="10" pointer-events="all"/><ellipse cx="425" cy="70" rx="20" ry="20" fill="#ffffff" stroke="#000000" pointer-events="all"/><path d="M 361.95 30.62 L 402.61 56.07" fill="none" stroke="#000000" stroke-miterlimit="10" pointer-events="stroke"/><path d="M 407.06 58.86 L 399.27 58.11 L 402.61 56.07 L 402.98 52.18 Z" fill="#000000" stroke="#000000" stroke-miterlimit="10" pointer-events="all"/><ellipse cx="345" cy="20" rx="20" ry="20" fill="#ffffff" stroke="#000000" pointer-events="all"/><path d="M 361.95 199.38 L 402.61 173.93" fill="none" stroke="#000000" stroke-miterlimit="10" pointer-events="stroke"/><path d="M 407.06 171.14 L 402.98 177.82 L 402.61 173.93 L 399.27 171.89 Z" fill="#000000" stroke="#000000" stroke-miterlimit="10" pointer-events="all"/><path d="M 328.05 199.38 L 287.35 173.98" fill="none" stroke="#000000" stroke-miterlimit="10" pointer-events="stroke"/><path d="M 282.9 171.21 L 290.69 171.94 L 287.35 173.98 L 286.99 177.88 Z" fill="#000000" stroke="#000000" stroke-miterlimit="10" pointer-events="all"/><path d="M 345 190 L 345 46.37" fill="none" stroke="#000000" stroke-miterlimit="10" pointer-events="stroke"/><path d="M 345 41.12 L 348.5 48.12 L 345 46.37 L 341.5 48.12 Z" fill="#000000" stroke="#000000" stroke-miterlimit="10" pointer-events="all"/><ellipse cx="345" cy="210" rx="20" ry="20" fill="#ffffff" stroke="#000000" pointer-events="all"/><ellipse cx="425" cy="160" rx="20" ry="20" fill="#ffffff" stroke="#000000" pointer-events="all"/><path d="M 282.43 150.19 L 402.02 82.93" fill="none" stroke="#000000" stroke-miterlimit="10" pointer-events="stroke"/><path d="M 406.6 80.36 L 402.21 86.84 L 402.02 82.93 L 398.78 80.74 Z" fill="#000000" stroke="#000000" stroke-miterlimit="10" pointer-events="all"/><ellipse cx="265" cy="160" rx="20" ry="20" fill="#ffffff" stroke="#000000" pointer-events="all"/><path d="M 425 350 L 482.61 313.93" fill="none" stroke="#000000" stroke-miterlimit="10" pointer-events="stroke"/><path d="M 487.06 311.14 L 482.98 317.82 L 482.61 313.93 L 479.27 311.89 Z" fill="#000000" stroke="#000000" stroke-miterlimit="10" pointer-events="all"/><ellipse cx="425" cy="350" rx="20" ry="20" fill="#ffffff" stroke="#000000" pointer-events="all"/><ellipse cx="585" cy="350" rx="20" ry="20" fill="#ffffff" stroke="#000000" pointer-events="all"/><path d="M 521.95 310.62 L 562.61 336.07" fill="none" stroke="#000000" stroke-miterlimit="10" pointer-events="stroke"/><path d="M 567.06 338.86 L 559.27 338.11 L 562.61 336.07 L 562.98 332.18 Z" fill="#000000" stroke="#000000" stroke-miterlimit="10" pointer-events="all"/><ellipse cx="505" cy="300" rx="20" ry="20" fill="#ffffff" stroke="#000000" pointer-events="all"/><path d="M 521.95 479.38 L 562.61 453.93" fill="none" stroke="#000000" stroke-miterlimit="10" pointer-events="stroke"/><path d="M 567.06 451.14 L 562.98 457.82 L 562.61 453.93 L 559.27 451.89 Z" fill="#000000" stroke="#000000" stroke-miterlimit="10" pointer-events="all"/><path d="M 488.05 479.38 L 447.39 453.93" fill="none" stroke="#000000" stroke-miterlimit="10" pointer-events="stroke"/><path d="M 442.94 451.14 L 450.73 451.89 L 447.39 453.93 L 447.02 457.82 Z" fill="#000000" stroke="#000000" stroke-miterlimit="10" pointer-events="all"/><path d="M 505 470 L 505 326.37" fill="none" stroke="#000000" stroke-miterlimit="10" pointer-events="stroke"/><path d="M 505 321.12 L 508.5 328.12 L 505 326.37 L 501.5 328.12 Z" fill="#000000" stroke="#000000" stroke-miterlimit="10" pointer-events="all"/><ellipse cx="505" cy="490" rx="20" ry="20" fill="#ffffff" stroke="#000000" pointer-events="all"/><ellipse cx="585" cy="440" rx="20" ry="20" fill="#ffffff" stroke="#000000" pointer-events="all"/><ellipse cx="425" cy="440" rx="20" ry="20" fill="#ffffff" stroke="#000000" pointer-events="all"/><path d="M 232.59 347.37 L 175.58 447.11" fill="none" stroke="#000000" stroke-miterlimit="10" pointer-events="stroke"/><path d="M 172.98 451.66 L 173.41 443.85 L 175.58 447.11 L 179.49 447.32 Z" fill="#000000" stroke="#000000" stroke-miterlimit="10" pointer-events="all"/><ellipse cx="242.5" cy="330" rx="20" ry="20" fill="#ffffff" stroke="#000000" pointer-events="all"/><path d="M 145.55 459.38 L 104.89 433.93" fill="none" stroke="#000000" stroke-miterlimit="10" pointer-events="stroke"/><path d="M 100.44 431.14 L 108.23 431.89 L 104.89 433.93 L 104.52 437.82 Z" fill="#000000" stroke="#000000" stroke-miterlimit="10" pointer-events="all"/><ellipse cx="162.5" cy="470" rx="20" ry="20" fill="#ffffff" stroke="#000000" pointer-events="all"/><path d="M 99.93 410.19 L 219.5 342.9" fill="none" stroke="#000000" stroke-miterlimit="10" pointer-events="stroke"/><path d="M 224.08 340.32 L 219.69 346.81 L 219.5 342.9 L 216.26 340.71 Z" fill="#000000" stroke="#000000" stroke-miterlimit="10" pointer-events="all"/><ellipse cx="82.5" cy="420" rx="20" ry="20" fill="#ffffff" stroke="#000000" pointer-events="all"/><rect x="0" y="370" width="325" height="60" rx="9" ry="9" fill="none" stroke="none" pointer-events="all"/><g transform="translate(-0.5 -0.5)" opacity="0.2"><switch><foreignObject style="overflow: visible; text-align: left;" pointer-events="none" width="100%" height="100%" requiredFeatures="http://www.w3.org/TR/SVG11/feature#Extensibility"><div xmlns="http://www.w3.org/1999/xhtml" style="display: flex; align-items: unsafe center; justify-content: unsafe center; width: 323px; height: 1px; padding-top: 400px; margin-left: 1px;"><div style="box-sizing: border-box; font-size: 0; text-align: center; "><div style="display: inline-block; font-size: 12px; font-family: Helvetica; color: #000000; line-height: 1.2; pointer-events: all; white-space: normal; word-wrap: normal; "><b><font style="background-color: rgb(255 , 255 , 255) ; font-size: 50px" color="#0066cc">导出子图</font></b></div></div></div></foreignObject><text x="163" y="404" fill="#000000" font-family="Helvetica" font-size="12px" text-anchor="middle">导出子图</text></switch></g><rect x="182.5" y="90" width="325" height="60" rx="9" ry="9" fill="none" stroke="none" pointer-events="all"/><g transform="translate(-0.5 -0.5)" opacity="0.2"><switch><foreignObject style="overflow: visible; text-align: left;" pointer-events="none" width="100%" height="100%" requiredFeatures="http://www.w3.org/TR/SVG11/feature#Extensibility"><div xmlns="http://www.w3.org/1999/xhtml" style="display: flex; align-items: unsafe center; justify-content: unsafe center; width: 323px; height: 1px; padding-top: 120px; margin-left: 184px;"><div style="box-sizing: border-box; font-size: 0; text-align: center; "><div style="display: inline-block; font-size: 12px; font-family: Helvetica; color: #000000; line-height: 1.2; pointer-events: all; white-space: normal; word-wrap: normal; "><b><font style="background-color: rgb(255 , 255 , 255) ; font-size: 50px" color="#0066cc">原图G</font></b></div></div></div></foreignObject><text x="345" y="124" fill="#000000" font-family="Helvetica" font-size="12px" text-anchor="middle">原图G</text></switch></g></g><switch><g requiredFeatures="http://www.w3.org/TR/SVG11/feature#Extensibility"/><a transform="translate(0,-5)" xlink:href="https://www.diagrams.net/doc/faq/svg-export-text-problems" target="_blank"><text text-anchor="middle" font-size="10px" x="50%" y="100%">Viewer does not support full SVG 1.1</text></a></switch></svg>