<?xml version="1.0" encoding="UTF-8"?>
<!DOCTYPE svg PUBLIC "-//W3C//DTD SVG 1.1//EN" "http://www.w3.org/Graphics/SVG/1.1/DTD/svg11.dtd">
<svg xmlns="http://www.w3.org/2000/svg" xmlns:xlink="http://www.w3.org/1999/xlink" version="1.1" width="721px" height="163px" viewBox="-0.5 -0.5 721 163" style="background-color: rgb(255, 255, 255);"><defs/><g><path d="M 40 21 L 120 21" fill="none" stroke="#000000" stroke-miterlimit="10" pointer-events="stroke"/><ellipse cx="20" cy="21" rx="20" ry="20" fill="#ffffff" stroke="#000000" pointer-events="all"/><path d="M 40 141 L 120 141" fill="none" stroke="#000000" stroke-miterlimit="10" pointer-events="stroke"/><ellipse cx="20" cy="141" rx="20" ry="20" fill="#ffffff" stroke="#000000" pointer-events="all"/><ellipse cx="140" cy="141" rx="20" ry="20" fill="#ffffff" stroke="#000000" pointer-events="all"/><path d="M 140 41 L 140 121" fill="none" stroke="#000000" stroke-miterlimit="10" pointer-events="stroke"/><ellipse cx="140" cy="21" rx="20" ry="20" fill="#ffffff" stroke="#000000" pointer-events="all"/><path d="M 34.14 35.14 L 125.86 126.86" fill="none" stroke="#000000" stroke-miterlimit="10" pointer-events="stroke"/><ellipse cx="310" cy="31" rx="20" ry="20" fill="#ffffff" stroke="#000000" pointer-events="all"/><ellipse cx="310" cy="131" rx="20" ry="20" fill="#ffffff" stroke="#000000" pointer-events="all"/><ellipse cx="410" cy="131" rx="20" ry="20" fill="#ffffff" stroke="#000000" pointer-events="all"/><ellipse cx="410" cy="31" rx="20" ry="20" fill="#ffffff" stroke="#000000" pointer-events="all"/><path d="M 600 21 L 680 21" fill="none" stroke="#000000" stroke-miterlimit="10" pointer-events="stroke"/><path d="M 580 41 L 580 121" fill="none" stroke="#000000" stroke-miterlimit="10" pointer-events="stroke"/><ellipse cx="580" cy="21" rx="20" ry="20" fill="#ffffff" stroke="#000000" pointer-events="all"/><path d="M 600 141 L 680 141" fill="none" stroke="#000000" stroke-miterlimit="10" pointer-events="stroke"/><ellipse cx="580" cy="141" rx="20" ry="20" fill="#ffffff" stroke="#000000" pointer-events="all"/><ellipse cx="700" cy="141" rx="20" ry="20" fill="#ffffff" stroke="#000000" pointer-events="all"/><path d="M 700 41 L 700 121" fill="none" stroke="#000000" stroke-miterlimit="10" pointer-events="stroke"/><ellipse cx="700" cy="21" rx="20" ry="20" fill="#ffffff" stroke="#000000" pointer-events="all"/><path d="M 220 161 L 220 1" fill="none" stroke="#000000" stroke-opacity="0.2" stroke-width="2" stroke-miterlimit="10" pointer-events="stroke"/><path d="M 500 161 L 500 1" fill="none" stroke="#000000" stroke-opacity="0.2" stroke-width="2" stroke-miterlimit="10" pointer-events="stroke"/><path d="M 594.14 126.86 L 685.86 35.14" fill="none" stroke="#000000" stroke-miterlimit="10" pointer-events="stroke"/><path d="M 685.86 126.86 L 594.14 35.14" fill="none" stroke="#000000" stroke-miterlimit="10" pointer-events="stroke"/></g></svg>